<mxfile host="Electron" modified="2024-04-16T09:52:41.801Z" agent="Mozilla/5.0 (Windows NT 10.0; Win64; x64) AppleWebKit/537.36 (KHTML, like Gecko) draw.io/24.1.0 Chrome/120.0.6099.109 Electron/28.1.0 Safari/537.36" etag="EunqY7EBRf15KvZ_0p08" version="24.1.0" type="device">
  <diagram name="Page-1" id="G2DiiTjYXWC3pQtFUdbm">
    <mxGraphModel dx="1834" dy="836" grid="1" gridSize="16" guides="1" tooltips="1" connect="1" arrows="1" fold="1" page="0" pageScale="1" pageWidth="850" pageHeight="1100" background="none" math="0" shadow="0">
      <root>
        <mxCell id="0" />
        <mxCell id="1" parent="0" />
        <mxCell id="GoXs74XpCZUineZdq1ic-10" value="" style="sketch=0;points=[[0,0,0],[0.25,0,0],[0.5,0,0],[0.75,0,0],[1,0,0],[0,1,0],[0.25,1,0],[0.5,1,0],[0.75,1,0],[1,1,0],[0,0.25,0],[0,0.5,0],[0,0.75,0],[1,0.25,0],[1,0.5,0],[1,0.75,0]];outlineConnect=0;fontColor=#232F3E;fillColor=#C925D1;strokeColor=#ffffff;dashed=0;verticalLabelPosition=bottom;verticalAlign=top;align=center;html=1;fontSize=12;fontStyle=0;aspect=fixed;shape=mxgraph.aws4.resourceIcon;resIcon=mxgraph.aws4.dynamodb;" parent="1" vertex="1">
          <mxGeometry x="632" y="342" width="78" height="78" as="geometry" />
        </mxCell>
        <mxCell id="GoXs74XpCZUineZdq1ic-20" value="" style="sketch=0;points=[[0,0,0],[0.25,0,0],[0.5,0,0],[0.75,0,0],[1,0,0],[0,1,0],[0.25,1,0],[0.5,1,0],[0.75,1,0],[1,1,0],[0,0.25,0],[0,0.5,0],[0,0.75,0],[1,0.25,0],[1,0.5,0],[1,0.75,0]];outlineConnect=0;fontColor=#232F3E;fillColor=#E7157B;strokeColor=#ffffff;dashed=0;verticalLabelPosition=bottom;verticalAlign=top;align=center;html=1;fontSize=12;fontStyle=0;aspect=fixed;shape=mxgraph.aws4.resourceIcon;resIcon=mxgraph.aws4.api_gateway;" parent="1" vertex="1">
          <mxGeometry x="235" y="339" width="84" height="84" as="geometry" />
        </mxCell>
        <mxCell id="GoXs74XpCZUineZdq1ic-38" value="dynamo&lt;br&gt;DB table" style="text;html=1;align=center;verticalAlign=middle;whiteSpace=wrap;rounded=0;fontStyle=1;fontColor=default;fontSize=14;" parent="1" vertex="1">
          <mxGeometry x="641" y="268" width="60" height="30" as="geometry" />
        </mxCell>
        <mxCell id="GoXs74XpCZUineZdq1ic-140" value="" style="outlineConnect=0;dashed=0;verticalLabelPosition=bottom;verticalAlign=top;align=center;html=1;shape=mxgraph.aws3.lambda_function;fillColor=#F58534;gradientColor=none;" parent="1" vertex="1">
          <mxGeometry x="440" y="355" width="49" height="52" as="geometry" />
        </mxCell>
        <mxCell id="GoXs74XpCZUineZdq1ic-141" style="edgeStyle=orthogonalEdgeStyle;rounded=0;orthogonalLoop=1;jettySize=auto;html=1;strokeColor=#FFFFFF;align=center;verticalAlign=middle;spacing=4;fontFamily=Helvetica;fontSize=12;fontColor=#000000;labelBackgroundColor=#FFFFFF;elbow=vertical;startArrow=none;endArrow=open;endFill=0;entryX=0;entryY=0.5;entryDx=0;entryDy=0;entryPerimeter=0;strokeWidth=1;endSize=8;" parent="1" source="GoXs74XpCZUineZdq1ic-140" edge="1" target="GoXs74XpCZUineZdq1ic-10">
          <mxGeometry relative="1" as="geometry">
            <mxPoint x="895" y="384" as="targetPoint" />
          </mxGeometry>
        </mxCell>
        <mxCell id="GoXs74XpCZUineZdq1ic-145" style="edgeStyle=orthogonalEdgeStyle;rounded=0;orthogonalLoop=1;jettySize=auto;html=1;entryX=0;entryY=0.5;entryDx=0;entryDy=0;entryPerimeter=0;strokeColor=#FFFFFF;align=center;verticalAlign=middle;spacing=4;fontFamily=Helvetica;fontSize=12;fontColor=#000000;labelBackgroundColor=#FFFFFF;elbow=vertical;startArrow=none;endArrow=open;endFill=0;endSize=8;strokeWidth=1;" parent="1" target="GoXs74XpCZUineZdq1ic-140" edge="1" source="GoXs74XpCZUineZdq1ic-20">
          <mxGeometry relative="1" as="geometry">
            <mxPoint x="391" y="356" as="sourcePoint" />
          </mxGeometry>
        </mxCell>
        <mxCell id="GoXs74XpCZUineZdq1ic-152" value="CRUD operations&lt;br&gt;for Product" style="edgeLabel;html=1;align=center;verticalAlign=middle;resizable=0;points=[];fontFamily=Helvetica;fontSize=12;fontColor=#FFFFFF;labelBackgroundColor=none;fillColor=none;gradientColor=none;fontStyle=1" parent="1" vertex="1" connectable="0">
          <mxGeometry x="560" y="464" as="geometry">
            <mxPoint x="-8" y="-58" as="offset" />
          </mxGeometry>
        </mxCell>
        <mxCell id="GoXs74XpCZUineZdq1ic-153" value="dataAccessHandler" style="text;html=1;align=center;verticalAlign=middle;whiteSpace=wrap;rounded=0;fontStyle=1;fontColor=#1A1A1A;fontSize=14;" parent="1" vertex="1">
          <mxGeometry x="498" y="423" width="60" height="30" as="geometry" />
        </mxCell>
        <mxCell id="imSHEXL_CSRtpCkoVFhX-4" value="API gateway" style="text;html=1;align=center;verticalAlign=middle;whiteSpace=wrap;rounded=0;fontStyle=1;fontColor=default;fontSize=14;" vertex="1" parent="1">
          <mxGeometry x="244" y="268" width="60" height="30" as="geometry" />
        </mxCell>
        <mxCell id="imSHEXL_CSRtpCkoVFhX-6" value="invoke" style="edgeLabel;html=1;align=center;verticalAlign=middle;resizable=0;points=[];fontFamily=Helvetica;fontSize=12;fontColor=#FFFFFF;labelBackgroundColor=none;fillColor=none;gradientColor=none;fontStyle=1" vertex="1" connectable="0" parent="1">
          <mxGeometry x="400" y="412" as="geometry">
            <mxPoint x="-8" y="-58" as="offset" />
          </mxGeometry>
        </mxCell>
        <mxCell id="imSHEXL_CSRtpCkoVFhX-7" value="Amazon Route 53" style="sketch=0;outlineConnect=0;fontColor=#232F3E;gradientColor=none;strokeColor=#ffffff;fillColor=#232F3E;dashed=0;verticalLabelPosition=middle;verticalAlign=bottom;align=center;html=1;whiteSpace=wrap;fontSize=11;fontStyle=1;spacing=3;shape=mxgraph.aws4.productIcon;prIcon=mxgraph.aws4.route_53;" vertex="1" parent="1">
          <mxGeometry x="80" y="333.5" width="64" height="95" as="geometry" />
        </mxCell>
        <mxCell id="imSHEXL_CSRtpCkoVFhX-8" style="edgeStyle=orthogonalEdgeStyle;rounded=0;orthogonalLoop=1;jettySize=auto;html=1;entryX=0;entryY=0.5;entryDx=0;entryDy=0;entryPerimeter=0;" edge="1" parent="1" source="imSHEXL_CSRtpCkoVFhX-7" target="GoXs74XpCZUineZdq1ic-20">
          <mxGeometry relative="1" as="geometry" />
        </mxCell>
        <mxCell id="imSHEXL_CSRtpCkoVFhX-10" style="edgeStyle=orthogonalEdgeStyle;rounded=0;orthogonalLoop=1;jettySize=auto;html=1;" edge="1" parent="1" source="imSHEXL_CSRtpCkoVFhX-9" target="imSHEXL_CSRtpCkoVFhX-7">
          <mxGeometry relative="1" as="geometry" />
        </mxCell>
        <mxCell id="imSHEXL_CSRtpCkoVFhX-9" value="" style="verticalLabelPosition=bottom;html=1;verticalAlign=top;align=center;strokeColor=none;fillColor=#00BEF2;shape=mxgraph.azure.user;" vertex="1" parent="1">
          <mxGeometry x="-144" y="356" width="47.5" height="50" as="geometry" />
        </mxCell>
        <mxCell id="imSHEXL_CSRtpCkoVFhX-11" value="use REST API" style="edgeLabel;html=1;align=center;verticalAlign=middle;resizable=0;points=[];fontFamily=Helvetica;fontSize=12;fontColor=#FFFFFF;labelBackgroundColor=none;fillColor=none;gradientColor=none;fontStyle=1" vertex="1" connectable="0" parent="1">
          <mxGeometry x="-16" y="412" as="geometry">
            <mxPoint x="-8" y="-58" as="offset" />
          </mxGeometry>
        </mxCell>
      </root>
    </mxGraphModel>
  </diagram>
</mxfile>
